<mxfile host="app.diagrams.net" modified="2023-01-24T12:44:36.643Z" agent="5.0 (Macintosh; Intel Mac OS X 10_15_7) AppleWebKit/537.36 (KHTML, like Gecko) Chrome/109.0.0.0 Safari/537.36" etag="QYCbGNqyDy-iHxMPFZiz" version="20.8.10" type="github">
  <diagram id="C5RBs43oDa-KdzZeNtuy" name="Page-1">
    <mxGraphModel dx="1381" dy="742" grid="1" gridSize="10" guides="1" tooltips="1" connect="1" arrows="1" fold="1" page="1" pageScale="1" pageWidth="827" pageHeight="1169" math="0" shadow="0">
      <root>
        <mxCell id="WIyWlLk6GJQsqaUBKTNV-0" />
        <mxCell id="WIyWlLk6GJQsqaUBKTNV-1" parent="WIyWlLk6GJQsqaUBKTNV-0" />
        <mxCell id="kDSyZx4VIkorgXdFGxUa-5" style="edgeStyle=orthogonalEdgeStyle;rounded=0;orthogonalLoop=1;jettySize=auto;html=1;entryX=0.467;entryY=0.111;entryDx=0;entryDy=0;entryPerimeter=0;" edge="1" parent="WIyWlLk6GJQsqaUBKTNV-1" source="kDSyZx4VIkorgXdFGxUa-0" target="kDSyZx4VIkorgXdFGxUa-3">
          <mxGeometry relative="1" as="geometry" />
        </mxCell>
        <mxCell id="kDSyZx4VIkorgXdFGxUa-0" value="Start" style="ellipse;whiteSpace=wrap;html=1;" vertex="1" parent="WIyWlLk6GJQsqaUBKTNV-1">
          <mxGeometry x="340" y="30" width="120" height="80" as="geometry" />
        </mxCell>
        <mxCell id="kDSyZx4VIkorgXdFGxUa-8" style="edgeStyle=orthogonalEdgeStyle;rounded=0;orthogonalLoop=1;jettySize=auto;html=1;entryX=0.5;entryY=0;entryDx=0;entryDy=0;" edge="1" parent="WIyWlLk6GJQsqaUBKTNV-1" source="kDSyZx4VIkorgXdFGxUa-1" target="kDSyZx4VIkorgXdFGxUa-2">
          <mxGeometry relative="1" as="geometry" />
        </mxCell>
        <mxCell id="kDSyZx4VIkorgXdFGxUa-1" value="" style="shape=parallelogram;perimeter=parallelogramPerimeter;whiteSpace=wrap;html=1;fixedSize=1;" vertex="1" parent="WIyWlLk6GJQsqaUBKTNV-1">
          <mxGeometry x="320" y="290" width="160" height="70" as="geometry" />
        </mxCell>
        <mxCell id="kDSyZx4VIkorgXdFGxUa-9" style="edgeStyle=orthogonalEdgeStyle;rounded=0;orthogonalLoop=1;jettySize=auto;html=1;entryX=0.5;entryY=0;entryDx=0;entryDy=0;" edge="1" parent="WIyWlLk6GJQsqaUBKTNV-1" source="kDSyZx4VIkorgXdFGxUa-2" target="kDSyZx4VIkorgXdFGxUa-4">
          <mxGeometry relative="1" as="geometry" />
        </mxCell>
        <mxCell id="kDSyZx4VIkorgXdFGxUa-2" value="" style="rounded=0;whiteSpace=wrap;html=1;" vertex="1" parent="WIyWlLk6GJQsqaUBKTNV-1">
          <mxGeometry x="320" y="410" width="160" height="70" as="geometry" />
        </mxCell>
        <mxCell id="kDSyZx4VIkorgXdFGxUa-7" style="edgeStyle=orthogonalEdgeStyle;rounded=0;orthogonalLoop=1;jettySize=auto;html=1;entryX=0.544;entryY=0.014;entryDx=0;entryDy=0;entryPerimeter=0;" edge="1" parent="WIyWlLk6GJQsqaUBKTNV-1" source="kDSyZx4VIkorgXdFGxUa-3" target="kDSyZx4VIkorgXdFGxUa-1">
          <mxGeometry relative="1" as="geometry" />
        </mxCell>
        <mxCell id="kDSyZx4VIkorgXdFGxUa-3" value="" style="shape=hexagon;perimeter=hexagonPerimeter2;whiteSpace=wrap;html=1;fixedSize=1;" vertex="1" parent="WIyWlLk6GJQsqaUBKTNV-1">
          <mxGeometry x="330" y="160" width="150" height="80" as="geometry" />
        </mxCell>
        <mxCell id="kDSyZx4VIkorgXdFGxUa-4" value="end" style="ellipse;whiteSpace=wrap;html=1;" vertex="1" parent="WIyWlLk6GJQsqaUBKTNV-1">
          <mxGeometry x="340" y="545" width="120" height="80" as="geometry" />
        </mxCell>
      </root>
    </mxGraphModel>
  </diagram>
</mxfile>
